# xmcd
#
# Track frame offsets:
#	150
#	11393
#	21352
#	33863
#	44653
#	57497
#	66281
#	76061
#	86221
#	96533
#	106882
#	117627
#
# Disc length: 1696 seconds
#
# Revision: 0
# Processed by: cddbd v1.5.1PL2 Copyright (c) Steve Scherf et al.
# Submitted via: EasyCDDAExtractor 4.6.9.1
#
DISCID=a1069e0c
DTITLE=Jean Shepard - Many Happy Hangovers
DYEAR=1966
DGENRE=Country
TTITLE0=Wave01
TTITLE1=Wave02
TTITLE2=Wave03
TTITLE3=Wave04
TTITLE4=Wave05
TTITLE5=Wave06
TTITLE6=Wave07
TTITLE7=Wave08
TTITLE8=Wave09
TTITLE9=Wave10
TTITLE10=Wave11
TTITLE11=Wave12
EXTD=
EXTT0=
EXTT1=
EXTT2=
EXTT3=
EXTT4=
EXTT5=
EXTT6=
EXTT7=
EXTT8=
EXTT9=
EXTT10=
EXTT11=
PLAYORDER=
